<svg width="541" height="104" viewBox="0 0 541 104" fill="none" xmlns="http://www.w3.org/2000/svg">
<path fill-rule="evenodd" clip-rule="evenodd" d="M3.38578 10.4282C1.6697 10.0525 0.371044 8.54972 0 7.04696L21.1959 7V7.04696C20.8249 8.54972 19.5726 9.95856 17.8101 10.4282H12.5227L12.2445 10.5221V24H8.95144V10.5221L8.67316 10.4282H3.38578ZM32.7332 10.4187H45.3674C47.1455 10.0909 48.4557 8.49862 48.7833 7H29.2705C29.6449 8.49862 30.9551 10.0441 32.7332 10.4187ZM126.787 10.4187H114.153C112.422 10.0441 111.112 8.49862 110.737 7H130.203C129.829 8.49862 128.566 10.0909 126.787 10.4187ZM111.252 24V13.7438H129.782V24H126.507V17.1625H114.528V24H111.252ZM101.285 24C102.923 23.2975 103.812 22.0799 104.186 20.6749H89.4465V7.04683H86.1242V24H101.285ZM73.2561 10.3719H61.5578L61.6046 13.7438H76.7656V24H57.3464C58.1419 22.3609 59.7329 21.0964 61.6046 20.5813H73.4901V17.0689H58.3291V7.04683H76.8592C76.4848 8.49862 75.0342 9.85675 73.2561 10.3719ZM45.3674 17.1157H32.7332C30.9551 16.741 29.6449 15.1956 29.2705 13.697H48.7833C48.4557 15.1956 47.1455 16.7879 45.3674 17.1157ZM32.7332 24H45.3674C47.1455 23.6722 48.4557 22.0799 48.7833 20.5813H29.2705C29.6449 22.0799 30.9551 23.6722 32.7332 24Z" fill="#36536B"/>
<path fill-rule="evenodd" clip-rule="evenodd" d="M207.921 15H192.781V0H207.921V15ZM339.134 14.0611V11.5398H335.961V7.62017L335.854 7.65262L332.874 8.55241L332.815 8.57002V11.54H328.112V9.88545C328.112 9.11505 328.286 8.5255 328.63 8.13233C328.972 7.74388 329.461 7.54639 330.084 7.54639C330.532 7.54639 330.996 7.65054 331.463 7.85593L331.58 7.90753V5.25227L331.525 5.2323C331.089 5.0778 330.497 5 329.763 5C328.837 5 327.996 5.19874 327.263 5.5926C326.529 5.98702 325.952 6.55008 325.548 7.26597C325.145 7.98103 324.94 8.8069 324.94 9.72083V11.5398H322.731V14.0611H324.94V24.6828H328.112V14.0611H332.815V20.811C332.815 23.591 334.144 24.9997 336.765 24.9997C337.195 24.9997 337.649 24.9499 338.111 24.8524C338.582 24.7523 338.903 24.6523 339.092 24.5455L339.134 24.5211V21.9765L339.005 22.0607C338.833 22.1739 338.618 22.2664 338.367 22.3352C338.115 22.4052 337.904 22.4403 337.741 22.4403C337.127 22.4403 336.673 22.2771 336.391 21.9549C336.106 21.6298 335.961 21.0614 335.961 20.2661V14.0611H339.134ZM315.649 22.4407C314.498 22.4407 313.59 22.064 312.951 21.3221C312.307 20.5764 311.981 19.5132 311.981 18.1624C311.981 16.7688 312.307 15.678 312.951 14.9191C313.591 14.1653 314.49 13.7826 315.623 13.7826C316.723 13.7826 317.598 14.1481 318.225 14.8694C318.855 15.5944 319.175 16.6764 319.175 18.0863C319.175 19.5135 318.874 20.6098 318.281 21.3432C317.692 22.071 316.807 22.4407 315.649 22.4407ZM310.606 13.1107C311.849 11.8582 313.594 11.2232 315.79 11.2232C317.859 11.2232 319.5 11.8306 320.666 13.029C321.832 14.2268 322.423 15.8944 322.423 17.9844C322.423 20.1003 321.793 21.8173 320.55 23.0857C319.307 24.3555 317.598 24.9994 315.469 24.9994C313.426 24.9994 311.775 24.3884 310.561 23.1821C309.348 21.9763 308.733 20.3211 308.733 18.2633C308.733 16.0967 309.363 14.3633 310.606 13.1107ZM303.619 11.2232C302.125 11.2232 300.89 11.6003 299.946 12.3438C298.996 13.0917 298.514 14.0726 298.514 15.2596C298.514 15.8766 298.618 16.4247 298.823 16.8896C299.029 17.356 299.347 17.7666 299.771 18.1113C300.191 18.4531 300.839 18.8112 301.698 19.1755C302.421 19.4688 302.959 19.7169 303.302 19.9125C303.636 20.1042 303.873 20.2968 304.007 20.4844C304.138 20.668 304.204 20.9193 304.204 21.2294C304.204 22.1124 303.534 22.5421 302.155 22.5421C301.644 22.5421 301.06 22.4367 300.421 22.2289C299.787 22.0243 299.188 21.7247 298.646 21.3405L298.514 21.2473V24.2605L298.562 24.2827C299.011 24.4871 299.577 24.6595 300.244 24.7952C300.909 24.9309 301.514 25 302.039 25C303.66 25 304.966 24.6211 305.918 23.8732C306.877 23.1201 307.363 22.1161 307.363 20.888C307.363 20.0021 307.101 19.2424 306.586 18.6297C306.074 18.0219 305.185 17.464 303.946 16.9708C302.958 16.5798 302.326 16.2551 302.065 16.0059C301.813 15.7651 301.686 15.4247 301.686 14.9935C301.686 14.6113 301.843 14.3051 302.167 14.0571C302.493 13.8079 302.947 13.6811 303.517 13.6811C304.045 13.6811 304.586 13.7635 305.123 13.9249C305.661 14.0863 306.133 14.3026 306.526 14.567L306.656 14.6544V11.7961L306.606 11.775C306.243 11.6212 305.764 11.4896 305.182 11.3828C304.602 11.2767 304.076 11.2232 303.619 11.2232ZM287.548 21.3221C288.188 22.064 289.096 22.4407 290.247 22.4407C291.405 22.4407 292.29 22.071 292.879 21.3432C293.472 20.6098 293.773 19.5135 293.773 18.0863C293.773 16.6764 293.453 15.5944 292.823 14.8694C292.196 14.1481 291.32 13.7826 290.221 13.7826C289.087 13.7826 288.189 14.1653 287.549 14.9191C286.905 15.678 286.579 16.7688 286.579 18.1624C286.579 19.5135 286.905 20.5764 287.548 21.3221ZM290.388 11.2232C288.191 11.2232 286.447 11.8582 285.204 13.1107C283.961 14.3633 283.33 16.0967 283.33 18.2633C283.33 20.3219 283.946 21.9763 285.159 23.1821C286.373 24.3884 288.024 24.9994 290.067 24.9994C292.195 24.9994 293.905 24.3555 295.148 23.0857C296.391 21.8173 297.021 20.1003 297.021 17.9844C297.021 15.8944 296.43 14.2268 295.264 13.029C294.097 11.8306 292.456 11.2232 290.388 11.2232ZM278.516 11.5398V13.8159H278.549C278.842 13.0773 279.225 12.485 279.755 12.0529C280.358 11.5615 281.063 11.3118 281.85 11.3118C282.372 11.3118 282.785 11.3735 283.077 11.4959L283.127 11.5173V14.6341L282.996 14.54C282.851 14.4368 282.605 14.3388 282.265 14.2485C281.922 14.1576 281.605 14.1117 281.323 14.1117C280.491 14.1117 279.809 14.4669 279.297 15.1678C278.779 15.8772 278.516 16.8164 278.516 17.9595V24.6826H275.383V11.5398H278.516ZM269.773 11.2232C268.336 11.2232 267.054 11.5273 265.963 12.1269C264.871 12.7278 264.026 13.5857 263.451 14.6766C262.878 15.7648 262.588 17.036 262.588 18.4537C262.588 19.6954 262.87 20.835 263.427 21.8394C263.984 22.8454 264.772 23.6324 265.771 24.1783C266.768 24.7235 267.92 24.9999 269.196 24.9999C270.685 24.9999 271.956 24.7061 272.975 24.1268L273.016 24.1035V21.2712L272.884 21.366C272.423 21.6979 271.907 21.9628 271.352 22.1536C270.798 22.3443 270.293 22.4407 269.851 22.4407C268.621 22.4407 267.634 22.0611 266.918 21.3128C266.2 20.5635 265.836 19.5113 265.836 18.1873C265.836 16.8549 266.216 15.7757 266.964 14.9793C267.71 14.1854 268.698 13.7826 269.902 13.7826C270.932 13.7826 271.935 14.1267 272.885 14.8063L273.016 14.9004V11.9161L272.974 11.8925C272.616 11.6951 272.129 11.5322 271.524 11.4086C270.922 11.2853 270.333 11.2232 269.773 11.2232ZM257.297 11.54H260.43V24.6826H257.297V11.54ZM258.896 5.94111C258.38 5.94111 257.931 6.11433 257.561 6.45758C257.19 6.80179 257.002 7.23518 257.002 7.74665C257.002 8.25008 257.188 8.67556 257.555 9.01062C257.92 9.34472 258.372 9.51405 258.896 9.51405C259.42 9.51405 259.873 9.34472 260.243 9.01118C260.614 8.67556 260.803 8.25022 260.803 7.74665C260.803 7.25307 260.62 6.82412 260.258 6.47145C259.897 6.11946 259.438 5.94111 258.896 5.94111ZM251.079 24.6826V10.5703H250.976L245.302 24.6826H243.035L237.271 10.5689H237.168V24.6824H234.164V6.34344H238.769L244.227 19.9652L249.852 6.34344H254.277V24.6826H251.079ZM208.931 15H224.07V0H208.931V15ZM207.921 31H192.781V16H207.921V31ZM208.931 31H224.07V16H208.931V31Z" fill="#36536B"/>
<path fill-rule="evenodd" clip-rule="evenodd" d="M439.52 2H422.759L421.998 4.02119C428.643 4.33583 433.926 9.32367 433.926 15.4299C433.926 21.1057 429.362 25.8147 423.381 26.7038L422.664 28.8728H439.52C440.464 28.8764 441.371 28.5007 442.04 27.8285C442.709 27.1564 443.086 26.2431 443.086 25.2905V5.57003C443.086 3.58084 441.489 2 439.52 2ZM408.833 15.4307C408.833 20.4277 412.383 24.838 417.321 26.4409L416.459 28.8728H403.253C401.287 28.8728 399.694 27.2477 399.694 25.2639V5.59746C399.693 3.61351 401.286 2.0037 403.253 2.00076H416.886L416.031 4.40059C411.916 6.60463 408.833 11.0378 408.833 15.4307ZM532.475 18.3912H524.687V28.981H532.427C535.23 28.981 535.419 26.2497 535.419 24.7641V21.6497C535.419 19.7808 534.469 18.3912 532.475 18.3912ZM532.997 25.0521V22.0329C533.046 21.3632 532.571 20.596 531.858 20.596H527.108V26.7769H531.668C532.522 26.7769 532.997 25.9617 532.997 25.0521ZM521.343 24.8647C521.916 24.3832 522.297 23.6625 522.297 21.7388C522.297 19.5751 520.82 18.3729 519.105 18.3729H512.103V28.9992H514.485V25.8734H518.581C519.534 25.8734 520.01 26.6428 520.01 27.0756V28.9985H522.297V26.7868C522.297 26.1621 522.105 25.2494 521.343 24.8647ZM514.485 23.6625H518.866C519.772 23.6625 520.01 22.5563 520.01 22.0283C520.01 21.4981 519.772 20.5854 518.58 20.5854H514.485V23.6625ZM505.484 18.3935H502.351L498.126 27.4938V28.9787H500.025L500.879 27.0626H506.947L507.811 28.9787H510.281L505.484 18.3935ZM503.918 20.3576L501.876 24.8601H505.95L503.918 20.3576ZM487.113 28.9901V18.3828H489.539V22.3666H490.585L494.723 18.3828H497.957L492.867 23.3745L497.1 27.5982V28.9901H495.292L490.776 24.5736H489.539V28.9901H487.113ZM474.368 26.4851V20.887C474.368 19.6917 475.649 18.3996 476.787 18.3996H482.622C484.14 18.4468 485.039 20.0269 485.039 20.9358V21.8439H482.622C482.572 21.3655 482.146 20.6486 481.767 20.6486H477.593C476.645 20.6486 476.788 21.6055 476.788 21.6055V25.8155C476.788 26.5811 477.261 26.7723 477.546 26.7723H481.672C482.573 26.7723 482.669 26.0067 482.669 25.5282H485.04V26.4851C485.04 28.0644 483.95 28.9733 482.622 28.9733H476.835C475.032 28.9733 474.368 27.5852 474.368 26.4851ZM468.494 18.3729H465.35L460.444 29H463.016L463.874 27.0771H469.96L470.828 29H473.305L468.494 18.3729ZM466.921 20.3438L464.874 24.8647H468.922L466.921 20.3438ZM457.724 18.3889H450.074V28.984H452.497V26.0113H457.723C459.148 26.0113 460.764 25.1968 460.764 22.2241C460.765 19.2041 459.006 18.3889 457.724 18.3889ZM452.497 23.8065H457.154C458.199 23.8065 458.199 22.7041 458.199 22.2249C458.199 21.7457 458.199 20.5945 457.011 20.5945H452.497V23.8065ZM450.074 2.1737V12.7688H452.497V8.54963H458.816V12.7688H461.239V2.1737H458.816V6.34484H452.497V2.1737H450.074ZM465.395 2.16685H473.48V4.37698H466.155V6.34484H472.244V8.55268H466.155V10.5685H473.48V12.7764H465.252C464.3 12.7764 463.73 12.0084 463.73 11.3845V3.7515C463.73 2.7908 464.3 2.16685 465.395 2.16685ZM493.003 2.17751V11.1841C493.003 11.9985 493.621 12.765 494.713 12.765H501.837V10.5609H495.426V2.17751H493.003ZM520.593 4.37469V12.7764H518.168V4.37469H514.671V2.16532H524.139V4.37469H520.593ZM531.813 12.7832V4.37012H535.36V2.15847H525.883V4.37012H529.384V12.7832H531.813ZM504.814 2.17142H512.893H512.894V4.37698H505.574V6.34407H511.658V8.5504H505.574V10.5647H512.894V12.771H504.671C503.719 12.771 503.15 12.0039 503.15 11.3799V3.75454C503.15 2.79461 503.719 2.17142 504.814 2.17142ZM486.384 12.787C485.668 12.787 484.978 11.7052 484.835 11.1757L483.048 5.61955L480.713 12.7878H479.236C478.521 12.7878 477.901 11.6816 477.758 11.1529L474.852 2.15618H477.282L479.523 9.42043L481.905 2.20418H484.191L486.573 9.42043L488.813 2.15618H491.244L487.813 12.7878H486.384V12.787ZM538.643 2.09371C539.27 2.08364 539.873 2.33407 540.311 2.78623C540.77 3.24791 541 3.80711 541 4.46306C541.01 5.09661 540.761 5.70627 540.311 6.14904C539.851 6.61453 539.295 6.84766 538.643 6.84766C537.989 6.84766 537.434 6.61529 536.977 6.14904C536.522 5.68507 536.295 5.12359 536.295 4.46306C536.285 3.8323 536.535 3.22567 536.983 2.78623C537.442 2.32531 537.994 2.09371 538.643 2.09371ZM540.076 5.91896C539.702 6.31179 539.183 6.52984 538.643 6.52082C538.103 6.5304 537.583 6.31226 537.209 5.91896C536.824 5.53485 536.612 5.0084 536.622 4.4623C536.622 3.89701 536.819 3.41476 537.212 3.01555C537.607 2.61481 538.084 2.41369 538.644 2.41369C539.203 2.41369 539.682 2.61481 540.077 3.01555C540.471 3.41476 540.667 3.89701 540.667 4.4623C540.667 5.03217 540.471 5.51747 540.076 5.91896ZM418.191 2L411.806 20.0009V20.0016H414.503L417.625 11.3377H418.476C419.043 11.3377 419.043 11.7541 418.949 12.2178L416.158 20.0016H418.949C418.949 20.0016 421.361 13.423 421.787 12.0328C422.212 10.6426 421.361 9.9475 419.705 9.9475H418.097L420.935 2H418.191ZM424.382 9.90179H428.796C430.124 9.90179 431.501 10.5998 430.789 12.5075L428.748 18.1839C428.369 19.2542 428.036 19.9987 426.043 19.9987H423.547L420.727 28H418.021L424.382 9.90179ZM428.036 11.9959C428.036 11.9959 426.043 17.5323 425.995 17.8117C425.948 18.0911 425.71 18.6026 425.236 18.6026H424.038L426.612 11.2979H427.799C428.226 11.2979 428.178 11.6237 428.036 11.9959Z" fill="#36536B"/>
<path fill-rule="evenodd" clip-rule="evenodd" d="M237.498 87.0795H233.258L234.677 85.6997H242.239L241.125 86.7907C240.918 86.9764 240.78 87.1878 240.78 87.496V93.5235C237.252 94.4855 234.197 95 230.756 95C223.661 95 218.015 90.4245 218.015 82.8291C218.015 77.4931 222.249 71 231.512 71C235.731 71 238.683 72.2844 240.722 73.6359L237.499 76.794V74.8906C235.78 73.3638 233.858 72.2676 230.556 72.2676C225.338 72.2676 221.597 76.2342 221.597 81.889C221.597 87.6547 225.733 93.5583 232.769 93.5583C234.505 93.5583 236.175 93.3299 237.498 92.9135V87.0795ZM251.739 79C246.496 79 243.248 82.6897 243.248 86.6061C243.248 89.9865 245.865 94 251.167 94C256.268 94 259.397 90.3031 259.397 86.3181C259.397 82.6062 256.339 79.0014 251.739 79.0014V79ZM250.869 80.0757C254.566 80.0757 256.212 84.7138 256.212 88.0219C256.212 92.9417 252.38 93.039 251.922 93.039C250.168 93.039 248.942 92.0182 248.025 90.6794C247.217 89.4455 246.428 87.1531 246.428 84.9132C246.428 82.6821 247.186 81.5927 248.379 80.7912C249.355 80.1904 250.269 80.0757 250.868 80.0757H250.869ZM286.059 79C281.635 79 279.241 81.8954 279.241 85.1281C279.241 87.5892 280.947 90.3657 284.466 90.3657H285.356C285.356 90.3657 285.114 90.9745 285.113 91.5626C285.113 92.4301 285.414 92.9173 286.054 93.667C279.999 94.0483 277.565 96.5727 277.565 99.2858C277.565 101.662 279.766 104 284.392 104C289.869 104 292.705 100.858 292.705 97.7736C292.705 95.5995 291.657 94.4077 289.003 92.3525C288.223 91.7256 288.071 91.3263 288.071 90.8571C288.071 90.1974 288.446 89.7567 288.595 89.5819L288.603 89.5723C288.769 89.3917 289.014 89.1941 289.209 89.0376C289.31 88.9566 289.397 88.8866 289.452 88.8355C290.344 88.0548 291.603 86.8994 291.603 84.5933C291.603 83.0111 290.966 81.6501 289.516 80.3756H291.287L292.617 79.0003H286.059V79ZM284.839 80.0289C285.642 80.0289 286.312 80.3223 287.02 80.9311C287.805 81.6627 289.06 83.6287 289.06 86.0614C289.06 88.6866 287.086 89.4053 286.018 89.4053C285.495 89.4053 284.869 89.2541 284.339 88.8792C283.161 88.0896 281.991 85.9877 281.991 83.4866C281.991 81.2297 283.292 80.0289 284.839 80.0289ZM287.171 94.6921C287.171 94.6921 286.928 94.6635 286.591 94.6635C282.047 94.7293 280.392 96.5004 280.392 98.5583C280.392 101.043 282.808 102.564 285.969 102.564C288.849 102.564 290.628 101.01 290.628 99.0287C290.628 97.5874 289.82 96.7782 288.524 95.7196C287.968 95.2802 287.171 94.6921 287.171 94.6921ZM299.801 94H293.374L294.552 92.8458C294.745 92.6494 294.835 92.4581 294.835 92.177V72.4027H292.705L294.131 71H299.611L298.452 72.1399C298.323 72.2623 298.145 72.4549 298.145 72.8309V91.9208C298.145 92.3294 298.44 92.751 298.937 92.8108L300.78 93.0372L299.801 94ZM300.78 86.2021C300.78 81.5765 304.638 79 308.269 79H308.271C312.123 79 313.8 80.987 314.395 82.9602L304.101 86.8329C305.083 90.4302 307.893 92.3872 310.807 92.3872C312.34 92.3872 313.495 91.9509 314.91 91.2866C314.16 92.2202 313.133 92.9631 312.066 93.4205C311.071 93.8456 310.009 94 308.719 94C303.548 94 300.78 90.0224 300.78 86.2021ZM310.954 82.7182C310.954 81.5503 309.546 80.0583 307.597 80.0583C306.309 80.0583 303.698 80.957 303.698 84.3187C303.698 85.1202 303.869 85.8618 303.869 85.8618L310.196 83.4798C310.7 83.2953 310.954 83.0959 310.954 82.7182ZM269.907 79C264.664 79 261.416 82.6897 261.416 86.6061C261.416 89.9865 264.033 94 269.335 94C274.436 94 277.565 90.3031 277.565 86.3181C277.565 82.6062 274.507 79.0014 269.907 79.0014V79ZM269.037 80.0757C272.734 80.0757 274.38 84.7138 274.38 88.0219C274.38 92.9417 270.548 93.039 270.089 93.039C268.336 93.039 267.11 92.0182 266.193 90.6794C265.385 89.4455 264.596 87.1531 264.596 84.9132C264.596 82.6821 265.354 81.5927 266.547 80.7912C267.523 80.1904 268.437 80.0757 269.036 80.0757H269.037Z" fill="#36536B"/>
<path fill-rule="evenodd" clip-rule="evenodd" d="M57.0814 90.06H65.8182L61.1984 82.709L52.7194 95.9997H48.8607L59.1737 80.0347C59.6221 79.3898 60.3694 79 61.1984 79C62 79 62.7474 79.3762 63.1822 80.0078L73.5361 95.9997H69.6774L67.8568 93.0299H59.011L57.0814 90.06ZM97.1654 93.0296V79.1612H93.8908V94.3871C93.8908 94.8037 94.0538 95.207 94.3662 95.516C94.6787 95.825 95.0999 95.9997 95.5619 95.9997H110.495L112.425 93.0299H97.1651L97.1654 93.0296ZM48.752 84.8591C48.752 88.0037 46.1703 90.5434 42.9905 90.5434L42.9907 90.544H41.496L48.0725 96H43.3167L33.5418 87.5741L42.7733 87.5873C44.2952 87.5873 45.5179 86.3645 45.5179 84.8596C45.5179 83.3545 44.2952 82.1313 42.7733 82.1313H31.9383V96H28.6648V79.1609H42.9905C46.1703 79.1609 48.752 81.7142 48.752 84.8591ZM8.51437 95.9997C3.8143 96 0 92.2371 0 87.5873C0 82.9374 3.8143 79.1614 8.51437 79.1614H18.4104C23.1115 79.1614 26.9229 82.9374 26.9229 87.5873C26.9229 92.2371 23.1115 95.9997 18.4101 95.9997H8.51437ZM23.7016 87.5871C23.7016 90.5973 21.2353 93.0299 18.1903 93.0299H18.1901H8.73311C5.68942 93.0299 3.22188 90.5973 3.22188 87.5873C3.22188 84.5771 5.68942 82.1313 8.73337 82.1313H18.1903C21.2353 82.1313 23.7016 84.5771 23.7016 87.5871ZM80.3708 95.9997C75.6697 95.9997 71.8513 92.2371 71.8513 87.5873C71.8513 82.9374 75.6697 79.1614 80.3708 79.1614H92.1247L90.2085 82.1313H80.5883C77.5446 82.1313 75.0716 84.5771 75.0716 87.5873C75.0716 90.5973 77.5446 93.0299 80.5883 93.0299H92.3961L90.4665 95.9997H80.3708ZM115.115 89.0654C115.767 91.3636 117.901 93.0299 120.414 93.0299H132.222L130.293 95.9995H120.197C115.495 95.9995 111.677 92.2368 111.677 87.5868C111.677 82.9371 115.495 79.1609 120.197 79.1609H131.964L130.021 82.1313H120.414C117.901 82.1313 115.767 83.8109 115.115 86.0955H131.04L129.111 89.0654H115.115Z" fill="#36536B"/>
<path fill-rule="evenodd" clip-rule="evenodd" d="M417.398 75V78.5014L418.093 78.458C427.032 78.1541 432.871 85.7791 432.871 85.7791C432.871 85.7791 426.178 93.9104 419.209 93.9104C418.6 93.9104 418.006 93.8525 417.412 93.7513V95.9215C417.905 95.9794 418.412 96.0228 418.905 96.0228C425.395 96.0228 430.089 92.7095 434.639 88.803C434.979 89.0772 435.794 89.5252 436.644 89.9929C437.679 90.5616 438.766 91.1593 439.115 91.5086C434.798 95.1258 424.729 98.0339 419.021 98.0339C418.47 98.0339 417.949 98.005 417.427 97.9471V101H442.085V75H417.398ZM417.398 82.7551V80.4124L417.412 80.4112V80.4103C417.639 80.3962 417.866 80.3823 418.093 80.3823C424.526 80.1797 428.742 85.9093 428.742 85.9093C428.742 85.9093 424.193 92.2176 419.31 92.2176C418.658 92.2176 418.021 92.1163 417.412 91.9137V84.7952C419.772 85.0813 420.36 86.0727 421.666 88.2768L421.666 88.2771C421.747 88.4139 421.831 88.5554 421.918 88.7017L425.265 85.8948C425.265 85.8948 422.816 82.6973 418.702 82.6973C418.267 82.6828 417.833 82.7117 417.398 82.7551ZM417.398 82.7551V84.7807H417.384C414.877 84.4769 412.907 86.8208 412.907 86.8208C412.907 86.8208 414.022 90.7707 417.398 91.9137V93.7657C411.4 92.695 409.734 86.4591 409.734 86.4591C409.734 86.4591 412.617 83.276 417.398 82.7551ZM417.412 80.4103L417.398 80.4112L417.398 80.4112V80.4124C410.294 80.9682 406.749 86.1987 406.749 86.1987C406.749 86.1987 409.459 94.9377 417.398 95.9215V97.9471C406.575 96.9343 402.722 85.7935 402.722 85.7935C402.722 85.7935 409.531 79.138 417.412 78.5014V80.4103ZM449.151 80V96.9856H454.048V83.797L457.866 83.8113C459.12 83.8113 459.994 84.1134 460.592 84.7462C461.364 85.5516 461.67 86.8604 461.67 89.2335V96.9856H466.422V87.6083C466.422 80.9061 462.093 80 457.866 80H449.151ZM487.336 80.0288V97H492.189V80.0288H487.336ZM495.163 97V80.0288H501.969C505.846 80.0288 508.44 80.489 510.218 82.8621C511.224 84.1853 511.792 86.3139 511.792 88.7014C511.792 91.3046 511.122 93.692 510.072 94.7707C508.6 96.3096 507.23 97 503.033 97H495.163ZM499.972 83.7107H502.056C505.088 83.7107 507.041 85.0482 507.041 88.5288C507.041 92.0093 505.088 93.3613 502.056 93.3613H499.972V83.7107ZM476.289 93.4763L480.34 80.0288H485.296L479.699 97H472.703L467.165 80.0288H472.412L476.289 93.4763ZM514.066 97H518.919V80.0288H514.066V97ZM520.901 96.9856L527.679 80.0288H534.164L541 96.9712H535.797L534.776 93.9797H526.76L525.682 96.9856H520.901ZM530.827 83.121L533.771 91.0601H527.795L530.827 83.121Z" fill="#36536B"/>
</svg>
